# xmcd CD database file
#
# Track frame offsets:
#	150
#	21600
#	37800
#	54975
#	73350
#	89250
#	106425
#	122475
#	140550
#	158250
#	173475
#	189150
#	206100
#	221625
#	236325
#	254850
#
# Disc length: 3644 seconds
#
# Revision: 1
# Processed by: cddbd v1.5.1PL2 Copyright (c) Steve Scherf et al.
# Submitted via: freeDBTagger 0.8.2.1
#
DISCID=e00e3a10
DTITLE=Destiny's Child - #1's
DYEAR=2005
DGENRE=blues
TTITLE0=Stand Up For Love
TTITLE1=Independent Women Part 1
TTITLE2=Survivor
TTITLE3=Soldier (featuring T.I. and Lil Wayne)
TTITLE4=Check On It (Beyonce' featuring Slim Thug)
TTITLE5=Jumpin Jumpin
TTITLE6=Lose My Breath
TTITLE7=Say My Name
TTITLE8=Emotion
TTITLE9=Bug A Boo
TTITLE10=Bootylicious
TTITLE11=Bills Bills Bills
TTITLE12=Girl
TTITLE13=No, No, No Part 2 (featuring Wyclef Jean)
TTITLE14=Cater 2 U
TTITLE15=Feel The Same Way I Do
EXTD=
EXTT0=
EXTT1=
EXTT2=
EXTT3=
EXTT4=
EXTT5=
EXTT6=
EXTT7=
EXTT8=
EXTT9=
EXTT10=
EXTT11=
EXTT12=
EXTT13=
EXTT14=
EXTT15=
PLAYORDER=
